<svg width="50" height="124" viewBox="0 0 50 124" fill="none" xmlns="http://www.w3.org/2000/svg">
<path d="M4.68653 81.4725L5.68432 81.5391V81.5391L4.68653 81.4725ZM7.93706 123.223C8.39676 123.529 9.01756 123.404 9.32366 122.945L14.3118 115.453C14.6179 114.994 14.4934 114.373 14.0337 114.067C13.574 113.761 12.9532 113.885 12.6471 114.345L8.21319 121.004L1.55435 116.57C1.09465 116.264 0.473848 116.388 0.16775 116.848C-0.138349 117.308 -0.0138348 117.928 0.445864 118.235L7.93706 123.223ZM13.6406 40.5193L12.7318 40.1021V40.1021L13.6406 40.5193ZM4.68653 81.4725L3.68875 81.406C3.13274 89.7456 4.09545 100.056 5.18584 108.241C5.73218 112.342 6.3129 115.926 6.7571 118.484C6.97924 119.764 7.16733 120.788 7.30005 121.493C7.3664 121.845 7.41893 122.118 7.45494 122.303C7.47295 122.395 7.48684 122.466 7.49626 122.514C7.50098 122.538 7.50457 122.556 7.50702 122.568C7.50824 122.574 7.50917 122.579 7.50981 122.582C7.51012 122.583 7.51037 122.585 7.51054 122.586C7.51063 122.586 7.5107 122.586 7.51075 122.587C7.5108 122.587 7.51083 122.587 8.49131 122.39C9.47178 122.194 9.47178 122.194 9.47176 122.194C9.47172 122.193 9.47169 122.193 9.47162 122.193C9.4715 122.192 9.47129 122.191 9.47102 122.19C9.47047 122.187 9.46963 122.183 9.4685 122.177C9.46623 122.166 9.46282 122.149 9.45829 122.126C9.44923 122.08 9.43571 122.011 9.41808 121.921C9.38281 121.74 9.33107 121.471 9.2655 121.123C9.13437 120.426 8.94799 119.412 8.72764 118.142C8.28685 115.603 7.71045 112.046 7.16832 107.977C6.08177 99.8207 5.14208 89.6722 5.68432 81.5391L4.68653 81.4725ZM49.2097 0.79834C48.6078 -0.00023939 48.6076 -7.17381e-05 48.6073 0.000171979C48.607 0.000354794 48.6066 0.00067484 48.6061 0.00104026C48.6051 0.00177127 48.6038 0.00280626 48.602 0.00414406C48.5985 0.00681968 48.5933 0.0107066 48.5866 0.0157952C48.5732 0.0259723 48.5534 0.0409562 48.5275 0.0606697C48.4758 0.100096 48.3994 0.158444 48.2998 0.235094C48.1007 0.388392 47.8086 0.61492 47.4343 0.909738C46.6858 1.49934 45.6082 2.36228 44.2876 3.45903C41.6471 5.65203 38.0318 8.78253 34.1307 12.5343C26.352 20.0151 17.3451 30.0524 12.7318 40.1021L13.6406 40.5193L14.5494 40.9365C18.9993 31.2428 27.777 21.4196 35.517 13.9758C39.3753 10.2652 42.9529 7.16737 45.5654 4.99761C46.8714 3.91298 47.9354 3.06092 48.6718 2.48088C49.04 2.19088 49.3262 1.96892 49.5198 1.81994C49.6165 1.74545 49.6901 1.68921 49.7392 1.65183C49.7638 1.63314 49.7822 1.61917 49.7943 1.60999C49.8004 1.60541 49.8048 1.60201 49.8077 1.59983C49.8092 1.59874 49.8102 1.59795 49.8109 1.59747C49.8112 1.59722 49.8114 1.59709 49.8115 1.59696C49.8116 1.5969 49.8116 1.59692 49.2097 0.79834ZM13.6406 40.5193L12.7318 40.1021C5.82469 55.1488 4.76314 65.291 3.68875 81.406L4.68653 81.4725L5.68432 81.5391C6.75382 65.4973 7.7963 55.6478 14.5494 40.9365L13.6406 40.5193Z" fill="#FD7760"/>
</svg>
