<svg width="38" height="56" viewBox="0 0 38 56" fill="none" xmlns="http://www.w3.org/2000/svg">
<path d="M34.2562 20.8434L35.2136 21.1321V21.1321L34.2562 20.8434ZM26.5876 36.1753L25.8222 35.5318L26.5876 36.1753ZM0.502583 50.5042C0.0235236 50.2294 -0.142056 49.6183 0.132752 49.1392L4.61101 41.3325C4.88582 40.8534 5.49695 40.6878 5.97601 40.9626C6.45507 41.2375 6.62065 41.8486 6.34584 42.3276L2.36517 49.267L9.30449 53.2476C9.78356 53.5224 9.94913 54.1336 9.67433 54.6126C9.39952 55.0917 8.78839 55.2573 8.30933 54.9825L0.502583 50.5042ZM36.2248 0.0263672C37.2245 -0.000268503 37.2245 -0.000124538 37.2245 6.93954e-05C37.2245 0.00020073 37.2245 0.000444846 37.2245 0.000707433C37.2245 0.00123266 37.2245 0.00195745 37.2245 0.00288066C37.2246 0.00472715 37.2247 0.0073675 37.2247 0.0107928C37.2249 0.0176434 37.2252 0.0276341 37.2255 0.0406941C37.2261 0.0668136 37.2269 0.105212 37.228 0.155321C37.23 0.255537 37.2327 0.402615 37.2352 0.592013C37.2403 0.970777 37.245 1.51899 37.2432 2.2003C37.2398 3.56241 37.2108 5.45917 37.1088 7.59914C36.9059 11.8543 36.4105 17.1627 35.2136 21.1321L34.2562 20.8434L33.2988 20.5547C34.4203 16.8351 34.9093 11.735 35.111 7.50387C35.2113 5.40071 35.2398 3.53489 35.2432 2.19522C35.2449 1.52564 35.2404 0.988155 35.2354 0.618945C35.2329 0.434357 35.2303 0.291878 35.2284 0.196035C35.2274 0.148115 35.2266 0.111858 35.226 0.0878291C35.2257 0.075815 35.2255 0.0668585 35.2254 0.0610304C35.2253 0.0581164 35.2252 0.0559845 35.2252 0.0546436C35.2252 0.0539731 35.2252 0.0535005 35.2252 0.0532267C35.2252 0.0530897 35.2252 0.0530339 35.2252 0.0529652C35.2252 0.052959 35.2252 0.0530029 36.2248 0.0263672ZM34.2562 20.8434L35.2136 21.1321C33.2479 27.6515 31.7805 31.553 27.3531 36.8188L26.5876 36.1753L25.8222 35.5318C29.9957 30.5679 31.3659 26.9652 33.2988 20.5547L34.2562 20.8434ZM26.5876 36.1753L27.3531 36.8188C23.6325 41.244 17.0369 44.6845 11.5147 46.9989C8.72938 48.1662 6.17086 49.0655 4.30873 49.6731C3.37716 49.977 2.61857 50.2084 2.09145 50.3642C1.82786 50.4421 1.62206 50.5011 1.48135 50.5408C1.41099 50.5607 1.3569 50.5758 1.31999 50.586C1.30153 50.5911 1.28737 50.595 1.27761 50.5977C1.27273 50.599 1.26896 50.6 1.2663 50.6007C1.26497 50.6011 1.26391 50.6014 1.26315 50.6016C1.26276 50.6017 1.26239 50.6018 1.2622 50.6019C1.2619 50.6019 1.26168 50.602 1.00017 49.6368C0.738658 48.6716 0.738572 48.6716 0.738558 48.6716C0.738647 48.6716 0.738701 48.6716 0.73888 48.6715C0.739234 48.6714 0.739868 48.6713 0.740778 48.671C0.742602 48.6705 0.745535 48.6697 0.749567 48.6686C0.757628 48.6664 0.77008 48.663 0.786801 48.6584C0.82025 48.6491 0.870789 48.635 0.937509 48.6162C1.07096 48.5785 1.2691 48.5217 1.52468 48.4462C2.03588 48.2951 2.77648 48.0693 3.68837 47.7717C5.51316 47.1763 8.01863 46.2956 10.7416 45.1544C16.2359 42.8517 22.4341 39.5615 25.8222 35.5318L26.5876 36.1753Z" fill="#E33D85"/>
</svg>
