<svg width="360" height="431" viewBox="0 0 360 431" fill="none" xmlns="http://www.w3.org/2000/svg">
<path d="M14.0269 1.06586C5.19563 0.818443 -6 14.8191 -6 14.8191V428.949C-6 428.949 26.2723 405.894 47.5 403.746C74.3328 401.032 88.2491 424.056 116 423.291C141.315 422.593 154.764 393.904 178 403.746L237.5 428.949C260.736 438.791 281.102 398.545 312.5 399.117C334.249 399.513 366 415.062 366 415.062V1.06586C361.111 11.5015 353.769 16.1922 344.471 14.8191C336.871 13.6967 335.479 2.81871 327.949 1.06586C317.332 -1.40575 312.938 17.8991 302.415 14.8191C295.427 12.7741 294.339 3.34661 287.394 1.06586C276.23 -2.60087 271.191 17.4509 259.857 14.8191C252 12.9945 250.149 3.17812 242.334 1.06586C230.162 -2.22383 224.354 18.7482 212.293 14.8191C205.031 12.4534 203.515 3.52735 196.272 1.06586C183.884 -3.14388 177.85 17.608 165.23 14.8191C156.69 12.9319 154.208 3.2077 145.704 1.06586C132.223 -2.32931 125.579 18.6064 112.159 14.8191C104.027 12.5243 101.908 2.19351 93.6339 1.06586C83.445 -0.322834 79.5734 17.8882 69.6016 14.8191C62.9402 12.7688 62.2802 2.90454 55.5828 1.06586C46.0803 -1.5429 42.7394 15.6851 33.0525 14.8191C24.5832 14.062 22.514 1.30363 14.0269 1.06586Z" fill="#FFCCE6" stroke="#FFCCE6"/>
</svg>
