<svg width="452" height="121" viewBox="0 0 452 121" fill="none" xmlns="http://www.w3.org/2000/svg">
<path d="M84.5246 16.3234C60.6658 22.8785 44.1639 24.4722 26.5246 41.8234C11.8263 56.2817 -3.66691 68.3702 1.52459 88.3234C6.86211 108.838 48.0246 116.323 48.0246 116.323C48.0246 116.323 133.17 105.827 188.025 103.823C265.547 100.991 313.094 136.339 386.525 111.323C412.233 102.565 442.112 107.088 449.025 80.8234C452.972 65.8247 449.035 55.3933 441.525 41.8234C429.395 19.9075 409.832 17.9985 386.525 8.82343C324.75 -15.4941 283.409 21.1442 217.025 21.8234C165.238 22.3533 134.463 2.60309 84.5246 16.3234Z" fill="white" stroke="white"/>
</svg>
