<svg width="231" height="210" viewBox="0 0 231 210" fill="none" xmlns="http://www.w3.org/2000/svg">
<path d="M39.1415 12.0777C21.0048 -11.8124 8.94765 8.02294 7.37632 12.0777C5.80499 16.1324 18.6825 35.9599 17.5511 52.1406C16.5233 66.8397 2.91979 72.4407 4.39833 87.0946C5.84717 101.454 24.8217 103.372 23.5071 117.746C22.2364 131.64 -1.77787 129.852 0.675853 143.559C2.75458 155.17 19.596 149.993 23.5071 161.036C28.4217 174.912 4.09464 182.381 9.60981 195.99C15.1668 209.702 29.5183 211.068 43.1121 208.358C55.503 205.887 56.3269 187.75 68.9213 187.385C81.9854 187.007 83.1732 207.53 96.2195 208.358C108.724 209.152 112.269 193.531 124.759 192.494C137.41 191.444 142.855 204.396 155.531 203.787C166.75 203.248 171.108 192.873 182.333 192.494C196.693 192.01 202.911 214.573 216.083 208.358C227.687 202.883 229.852 190.595 230.477 176.899C231.114 162.955 218.308 157.518 218.565 143.559C218.81 130.282 230.441 125.379 230.477 112.1C230.514 98.7239 219.608 93.701 218.565 80.3727C217.453 66.1618 226.752 59.1403 226.506 44.8809C226.278 31.6394 230.477 23.102 218.565 12.0777C206.653 1.05334 195.528 23.102 178.859 23.102C166.454 23.102 157.268 -3.51679 144.364 12.0777C131.459 27.6721 119.795 22.2946 108.38 12.0777C96.964 1.86073 78.5998 5.62424 71.1548 12.0777C63.7099 18.5311 57.2782 35.9677 39.1415 12.0777Z" fill="#FF9784" stroke="#FF9784"/>
</svg>
