<svg width="194" height="127" viewBox="0 0 194 127" fill="none" xmlns="http://www.w3.org/2000/svg">
<path d="M20.1711 77.9615C18.5947 78.384 17.0753 78.4186 15.6127 78.0651C14.1502 77.7117 12.8426 76.9192 11.69 75.6876C10.5544 74.4266 9.67708 72.6491 9.05818 70.3551C8.56431 68.5246 8.35448 66.7794 8.4287 65.1196C8.51985 63.4305 8.79789 61.9272 9.26282 60.61C9.7215 59.2695 10.2605 58.1809 10.8799 57.344C11.4993 56.5071 12.0988 56.011 12.6783 55.8557C13.0724 55.7501 13.3841 55.7535 13.6133 55.866C13.8425 55.9785 14.0196 56.2665 14.1447 56.7299C14.2322 57.0543 14.2323 57.3773 14.1451 57.6988C14.081 58.0142 13.9242 58.3544 13.6747 58.7194C13.0553 59.5563 12.567 60.5568 12.2099 61.7209C11.8528 62.885 11.6545 64.1308 11.6149 65.4583C11.5753 66.7858 11.7431 68.1447 12.1182 69.535C12.4683 70.8326 12.9694 71.9531 13.6217 72.8964C14.2739 73.8397 15.0754 74.507 16.0261 74.8982C16.9706 75.2662 18.0919 75.2763 19.3901 74.9283C20.7578 74.5618 21.8877 73.7744 22.7798 72.5663C23.6951 71.352 24.2629 69.7711 24.4832 67.8236C24.7205 65.8468 24.4953 63.584 23.8076 61.0351C23.4326 59.6448 22.9358 58.4487 22.3175 57.4466C21.6991 56.4445 20.9462 55.7269 20.0588 55.2939C19.1945 54.8547 18.206 54.7842 17.0933 55.0824C16.1892 55.3247 15.3721 55.7052 14.642 56.2239C13.9351 56.7364 13.3237 57.3723 12.8077 58.1318C12.2854 58.8681 11.8439 59.7194 11.4832 60.6857C11.3772 60.9378 11.2186 61.1791 11.0073 61.4096C10.7961 61.6402 10.4818 61.8113 10.0646 61.9232C9.71683 62.0164 9.39268 61.9666 9.09209 61.7738C8.78525 61.5579 8.58182 61.2646 8.4818 60.8938C8.34427 60.3841 8.41355 59.7195 8.68964 58.9001C8.98266 58.0513 9.46739 57.1759 10.1438 56.2741C10.8203 55.3722 11.6786 54.5459 12.7189 53.7949C13.753 53.0209 14.9423 52.4536 16.2869 52.0933C18.0487 51.6211 19.6217 51.6468 21.0058 52.1703C22.39 52.6938 23.5665 53.6457 24.5355 55.0259C25.5214 56.3767 26.2988 58.1064 26.8676 60.215C27.5428 62.7175 27.8206 64.9911 27.7011 67.0358C27.5985 69.051 27.1913 70.8125 26.4794 72.3202C25.7907 73.8216 24.8933 75.056 23.7871 76.0234C22.6746 76.9676 21.4693 77.6136 20.1711 77.9615Z" fill="white"/>
<path d="M38.8943 73.4854C37.2537 73.8469 35.852 73.9591 34.6893 73.8222C33.55 73.68 32.6617 73.3965 32.0245 72.9717C31.382 72.5235 30.9999 72.0301 30.8783 71.4917C30.7831 71.0703 30.7976 70.6985 30.9217 70.3762C31.0691 70.0488 31.3421 69.8412 31.7406 69.7534C32.0452 69.6863 32.3269 69.7348 32.5854 69.899C32.862 70.0347 33.1935 70.1951 33.5798 70.3803C33.9661 70.5655 34.476 70.6989 35.1095 70.7805C35.7378 70.8387 36.5792 70.7515 37.6339 70.5191C39.2043 70.1731 40.589 69.6591 41.7882 68.9771C42.9874 68.295 43.8918 67.5059 44.5013 66.6098C45.1109 65.7136 45.3046 64.7739 45.0826 63.7907C44.8764 62.8777 44.3896 62.2477 43.6224 61.9007C42.8498 61.5303 41.8303 61.374 40.564 61.4318C39.2923 61.4663 37.8245 61.6669 36.1604 62.0335C35.5042 62.1782 34.9553 62.0902 34.5139 61.7697C34.0724 61.4492 33.7988 61.0548 33.6931 60.5866C33.6244 60.2823 33.6456 59.995 33.7568 59.7247C33.8914 59.4493 34.1474 59.2209 34.5247 59.0394C35.6981 58.4614 36.7503 57.8363 37.6811 57.1643C38.6353 56.4871 39.3431 55.7536 39.8045 54.9638C40.2892 54.1689 40.4232 53.2915 40.2065 52.3317C40.0426 51.606 39.7569 51.1037 39.3495 50.8248C38.9368 50.5226 38.4594 50.3697 37.9173 50.3663C37.3934 50.3343 36.8385 50.3828 36.2525 50.512C34.7525 50.8425 33.5628 51.2398 32.6835 51.7039C31.8275 52.1628 31.158 52.6299 30.6748 53.105C30.1916 53.5801 29.7916 53.9877 29.4747 54.3278C29.1813 54.6628 28.8471 54.8716 28.4721 54.9543C28.1908 55.0162 27.9198 55.0145 27.659 54.9491C27.3982 54.8837 27.1763 54.7729 26.9934 54.6166C26.8286 54.4317 26.7172 54.2105 26.659 53.953C26.5744 53.5784 26.7488 53.0976 27.1821 52.5106C27.6101 51.9002 28.231 51.2719 29.0446 50.6257C29.8529 49.9561 30.8113 49.3517 31.9198 48.8125C33.0463 48.2448 34.2425 47.8215 35.5081 47.5426C37.0081 47.2121 38.2915 47.1751 39.3582 47.4315C40.443 47.6594 41.3123 48.1314 41.9661 48.8475C42.6434 49.5584 43.1062 50.464 43.3547 51.5643C43.5027 52.2197 43.5389 52.9245 43.4631 53.6784C43.4108 54.4272 43.163 55.1822 42.7198 55.9434C42.3001 56.6994 41.6418 57.4343 40.745 58.148C39.8482 58.8617 38.6464 59.532 37.1395 60.159L36.965 59.3864C38.7228 58.9991 40.2546 58.809 41.5602 58.8162C42.884 58.7948 43.9908 58.9565 44.8806 59.3011C45.7938 59.6405 46.5225 60.1435 47.0666 60.81C47.6055 61.453 47.9807 62.2428 48.1922 63.1792C48.4619 64.3731 48.4382 65.5211 48.1212 66.6231C47.8223 67.6966 47.26 68.6929 46.4342 69.6121C45.6031 70.508 44.5502 71.2929 43.2754 71.967C41.9953 72.6177 40.535 73.1238 38.8943 73.4854Z" fill="white"/>
<path d="M52.3929 70.7437C51.4964 70.9113 50.6841 70.758 49.9559 70.2838C49.2231 69.786 48.7717 69.1013 48.6018 68.2297C48.4824 67.6172 48.5746 67.0873 48.8786 66.6398C49.2062 66.1879 49.653 65.909 50.2192 65.8032C50.9034 65.6753 51.5135 65.7321 52.0496 65.9737C52.6094 66.2109 53.0531 66.543 53.3809 66.97C53.7087 67.3971 53.9208 67.8579 54.0172 68.3526C54.1183 68.8708 54.0568 69.3706 53.8328 69.852C53.6042 70.3098 53.1242 70.607 52.3929 70.7437Z" fill="white"/>
<path d="M65.8131 68.5299C64.1995 68.7743 62.6825 68.6399 61.2621 68.1268C59.8418 67.6138 58.621 66.6821 57.5998 65.3319C56.5985 63.9544 55.9077 62.0929 55.5274 59.7476C55.2239 57.876 55.1946 56.1207 55.4394 54.4816C55.7041 52.8153 56.1358 51.3543 56.7345 50.0985C57.3294 48.8191 57.9783 47.7985 58.6814 47.0366C59.3845 46.2748 60.0327 45.849 60.6259 45.7591C61.0293 45.698 61.3394 45.736 61.5561 45.8731C61.7728 46.0102 61.9196 46.3157 61.9964 46.7895C62.0502 47.1211 62.0171 47.4417 61.8971 47.7511C61.8008 48.057 61.6096 48.3772 61.3235 48.7118C60.6204 49.4736 60.0311 50.4124 59.5555 51.5281C59.08 52.6439 58.7542 53.8583 58.5781 55.1714C58.402 56.4845 58.4292 57.8518 58.6597 59.2732C58.8748 60.5999 59.2586 61.7675 59.8111 62.7761C60.3636 63.7847 61.0932 64.5358 61.9999 65.0296C62.9027 65.4997 64.0186 65.6341 65.3474 65.4329C66.7474 65.2208 67.9539 64.5648 68.9669 63.4648C70.0035 62.3612 70.7318 60.8552 71.1518 58.9469C71.5917 57.0113 71.6003 54.7406 71.1778 52.1346C70.9473 50.7132 70.5757 49.4709 70.063 48.4077C69.5502 47.3446 68.8742 46.5489 68.0349 46.0206C67.2193 45.4888 66.242 45.3091 65.103 45.4816C64.1775 45.6218 63.3245 45.9087 62.5439 46.3425C61.787 46.7726 61.1126 47.336 60.5204 48.0324C59.9245 48.7052 59.3971 49.5011 58.9383 50.4201C58.8067 50.6585 58.6239 50.8804 58.3898 51.0858C58.1556 51.2911 57.825 51.4261 57.3979 51.4908C57.0419 51.5447 56.7242 51.4594 56.4446 51.2347C56.1613 50.9863 55.9888 50.6726 55.9274 50.2936C55.8429 49.7724 55.9803 49.1205 56.3396 48.3379C56.7189 47.528 57.2918 46.7131 58.0584 45.8931C58.825 45.0731 59.7651 44.3482 60.8785 43.7184C61.9882 43.0649 63.2312 42.634 64.6075 42.4255C66.4109 42.1524 67.975 42.3524 69.2998 43.0256C70.6245 43.6988 71.6984 44.7741 72.5214 46.2514C73.3643 47.7014 73.9605 49.5044 74.3101 51.6602C74.7249 54.2188 74.7676 56.5061 74.438 58.5221C74.1283 60.5108 73.5414 62.2138 72.6771 63.6311C71.8366 65.0448 70.8156 66.1703 69.6142 67.0076C68.409 67.8212 67.1419 68.3286 65.8131 68.5299Z" fill="white"/>
<path d="M84.5359 66.3195C82.8397 66.4826 81.4502 66.3631 80.3674 65.9609C79.2819 65.5349 78.4686 64.9501 77.9274 64.2066C77.3836 63.4392 77.0641 62.6261 76.9689 61.7674C76.8974 61.1233 76.9123 60.4951 77.0134 59.8827C77.1119 59.2464 77.3842 58.5452 77.8304 57.779C78.2767 57.0129 78.9764 56.138 79.9297 55.1543C80.9043 54.1445 82.2345 52.9679 83.9206 51.6245C85.1658 50.661 86.1788 49.7801 86.9595 48.9818C87.7375 48.1597 88.3338 47.3309 88.7482 46.4955C89.1865 45.6578 89.4961 44.748 89.6769 43.7663C89.7807 43.1778 89.9136 42.7431 90.0756 42.4623C90.2376 42.1816 90.5098 42.0228 90.892 41.986C91.3459 41.9424 91.7347 42.0738 92.0584 42.3802C92.3795 42.6627 92.5665 43.0425 92.6194 43.5196C92.7146 44.3783 92.5802 45.3435 92.2161 46.4152C91.8494 47.463 91.1999 48.5741 90.2678 49.7486C89.3357 50.9231 88.0824 52.1405 86.5078 53.4009C85.1272 54.4497 84 55.3898 83.1264 56.2211C82.2741 57.0263 81.6182 57.7524 81.1587 58.3992C80.6966 59.0223 80.3978 59.5934 80.2622 60.1127C80.1266 60.632 80.0853 61.1302 80.1382 61.6073C80.1937 62.1082 80.3435 62.5881 80.5875 63.0468C80.8315 63.5055 81.2016 64.0123 81.6977 64.5673L79.2421 62.3444C79.9665 62.781 80.7229 63.0699 81.5112 63.2111C82.2968 63.3284 83.1913 63.3389 84.1947 63.2424C85.5325 63.1138 86.7695 62.8381 87.9057 62.4155C89.0632 61.9667 89.9752 61.3727 90.6417 60.6336C91.3083 59.8945 91.586 59.024 91.4749 58.0222C91.4061 57.402 91.1754 56.8456 90.7828 56.3529C90.414 55.858 89.7493 55.4156 88.7886 55.0258C87.8491 54.6099 86.4996 54.1972 84.7399 53.7878C82.6087 53.2936 80.8769 52.8092 79.5446 52.3345C78.2336 51.8338 77.2238 51.3282 76.5153 50.8177C75.8068 50.3072 75.312 49.7641 75.0309 49.1885C74.7471 48.5889 74.5655 47.9314 74.4862 47.2157C74.325 45.3267 75.0582 43.7736 76.6858 42.5563C78.3347 41.3129 81.0583 40.5086 84.8568 40.1434C85.6929 40.063 86.334 40.0737 86.7798 40.1755C87.2496 40.275 87.5959 40.4587 87.8188 40.7265C88.039 40.9706 88.169 41.2715 88.2086 41.6293C88.2509 42.0109 88.13 42.336 87.8459 42.6044C87.5857 42.8705 87.2154 43.0146 86.7349 43.0366C84.5556 43.198 82.7732 43.4537 81.3875 43.8039C80.0257 44.1518 79.0368 44.5965 78.4207 45.1378C77.826 45.6531 77.5696 46.2804 77.6516 47.0199C77.6886 47.3539 77.8212 47.6786 78.0493 47.9942C78.3014 48.3075 78.7219 48.6166 79.3111 48.9216C79.9002 49.2266 80.7097 49.5586 81.7394 49.9176C82.7904 50.2505 84.1466 50.6144 85.808 51.0091C87.7216 51.5002 89.2503 52.0041 90.3941 52.5209C91.5592 53.0116 92.4389 53.5418 93.0332 54.1115C93.6249 54.6573 94.0281 55.2453 94.2429 55.8756C94.4789 56.4797 94.6352 57.1277 94.7119 57.8194C94.8521 59.0837 94.6154 60.3239 94.0017 61.5401C93.3855 62.7324 92.3048 63.7645 90.7596 64.6363C89.2144 65.5081 87.1398 66.0692 84.5359 66.3195Z" fill="white"/>
<path d="M98.075 65.32C97.1644 65.3703 96.3758 65.1134 95.7091 64.5494C95.0407 63.9614 94.6743 63.2246 94.6097 62.339C94.5644 61.7166 94.7195 61.2034 95.075 60.7992C95.4545 60.3937 95.9318 60.1751 96.5069 60.1434C97.2018 60.105 97.8011 60.2401 98.3048 60.5488C98.8325 60.8561 99.2336 61.2425 99.5081 61.708C99.7826 62.1735 99.9381 62.6576 99.9748 63.1603C100.013 63.6869 99.8923 64.1742 99.6121 64.6223C99.3302 65.0464 98.8179 65.279 98.075 65.32Z" fill="white"/>
<path d="M106.905 65.3521C105.801 65.3602 104.954 65.1384 104.366 64.6868C103.777 64.2592 103.471 63.6256 103.448 62.7859C103.437 62.4021 103.523 62.0415 103.705 61.7043C103.911 61.3428 104.203 61.0527 104.581 60.834C106.984 59.2327 109.006 57.7542 110.648 56.3984C112.314 55.0425 113.634 53.7611 114.608 52.5542C115.606 51.3231 116.305 50.1782 116.708 49.1195C117.133 48.0366 117.332 47.0033 117.304 46.0197C117.269 44.7722 116.893 43.8031 116.178 43.1125C115.461 42.3979 114.383 42.0459 112.943 42.0564C111.719 42.0654 110.668 42.229 109.788 42.5474C108.909 42.8418 108.15 43.1953 107.514 43.6079C106.877 43.9964 106.334 44.3363 105.887 44.6276C105.439 44.9188 105.047 45.0656 104.711 45.0681C104.303 45.0711 103.951 44.9297 103.655 44.6439C103.358 44.3581 103.205 44.0233 103.194 43.6395C103.186 43.3516 103.262 43.0871 103.424 42.846C103.585 42.6048 103.842 42.351 104.194 42.0845C105.368 41.164 106.703 40.4104 108.199 39.8236C109.695 39.2367 111.247 38.9374 112.854 38.9257C114.63 38.9126 116.067 39.2021 117.164 39.7939C118.285 40.3856 119.1 41.2195 119.611 42.2955C120.146 43.3714 120.432 44.6051 120.472 45.9965C120.502 47.0761 120.331 48.2411 119.959 49.4916C119.585 50.7181 118.89 52.0309 117.874 53.4301C116.857 54.8293 115.447 56.3153 113.643 57.8882C111.839 59.4611 109.51 61.1219 106.655 62.8704L105.976 61.7956C106.341 61.9609 106.704 62.0662 107.065 62.1116C107.427 62.1569 107.787 62.1783 108.147 62.1756C109.059 62.169 110.102 62.1013 111.274 61.9728C112.447 61.8442 113.727 61.7149 115.116 61.5847C116.528 61.4544 117.991 61.3837 119.503 61.3726C120.679 61.364 121.476 61.5622 121.896 61.967C122.315 62.3479 122.531 62.7662 122.543 63.222C122.555 63.6299 122.408 63.9549 122.103 64.1971C121.797 64.4153 121.32 64.5267 120.672 64.5315C118.896 64.5445 117.325 64.592 115.959 64.674C114.593 64.7559 113.384 64.8488 112.331 64.9525C111.277 65.0562 110.308 65.1472 109.422 65.2257C108.56 65.304 107.721 65.3461 106.905 65.3521Z" fill="white"/>
<path d="M130.752 65.849C129.125 65.718 127.674 65.24 126.396 64.4151C125.119 63.5902 124.126 62.403 123.416 60.8535C122.732 59.2821 122.453 57.31 122.581 54.9375C122.682 53.0442 123.027 51.3269 123.614 49.7857C124.227 48.2224 124.959 46.8973 125.81 45.8106C126.663 44.6999 127.513 43.8537 128.361 43.2722C129.209 42.6906 129.932 42.4239 130.53 42.4721C130.937 42.5048 131.231 42.6128 131.414 42.796C131.596 42.9791 131.675 43.3104 131.649 43.7897C131.631 44.1252 131.53 44.43 131.347 44.7041C131.188 44.9801 130.934 45.2485 130.583 45.5091C129.735 46.0906 128.961 46.8706 128.259 47.8491C127.558 48.8276 126.982 49.9365 126.531 51.1759C126.08 52.4152 125.816 53.7539 125.739 55.1918C125.666 56.5339 125.793 57.7595 126.118 58.8688C126.443 59.9781 126.995 60.877 127.775 61.5656C128.556 62.2303 129.616 62.6165 130.956 62.7244C132.367 62.8381 133.684 62.4748 134.907 61.6346C136.153 60.7963 137.184 59.4953 138 57.7318C138.84 55.9462 139.331 53.7353 139.473 51.0991C139.55 49.6611 139.452 48.3655 139.177 47.2121C138.903 46.0588 138.412 45.1287 137.705 44.4219C137.023 43.717 136.107 43.3184 134.959 43.2259C134.026 43.1507 133.132 43.2352 132.278 43.4793C131.448 43.7254 130.67 44.12 129.944 44.6633C129.219 45.1826 128.536 45.8375 127.892 46.6282C127.713 46.8304 127.488 47.0047 127.216 47.1513C126.943 47.2979 126.592 47.3538 126.161 47.3191C125.803 47.2902 125.511 47.1343 125.286 46.8515C125.062 46.5446 124.96 46.1994 124.981 45.816C125.009 45.2888 125.282 44.6849 125.799 44.0045C126.341 43.302 127.074 42.6389 127.996 42.0152C128.919 41.3915 129.99 40.9002 131.211 40.5412C132.432 40.1582 133.737 40.0226 135.125 40.1343C136.943 40.2808 138.427 40.8335 139.577 41.7926C140.726 42.7517 141.546 44.0453 142.035 45.6732C142.549 47.2791 142.748 49.1725 142.631 51.3534C142.492 53.9417 142.047 56.1804 141.297 58.0696C140.572 59.9367 139.637 61.462 138.492 62.6455C137.372 63.8309 136.136 64.6941 134.785 65.2352C133.436 65.7523 132.092 65.9569 130.752 65.849Z" fill="white"/>
<path d="M144.536 68.0421C143.454 67.8247 142.667 67.4343 142.178 66.871C141.684 66.3314 141.506 65.6473 141.644 64.8188C141.707 64.44 141.86 64.1038 142.104 63.8102C142.375 63.4976 142.716 63.2726 143.128 63.1352C145.789 62.055 148.053 61.0174 149.921 60.0226C151.812 59.0326 153.35 58.045 154.536 57.0599C155.749 56.0558 156.654 55.0755 157.251 54.1189C157.875 53.1434 158.268 52.1704 158.43 51.1997C158.635 49.9687 158.454 48.9414 157.886 48.1177C157.322 47.2704 156.334 46.7049 154.922 46.4212C153.722 46.1801 152.661 46.126 151.739 46.2588C150.821 46.368 150.011 46.56 149.309 46.8348C148.61 47.0859 148.014 47.3086 147.52 47.5029C147.025 47.6971 146.613 47.7612 146.284 47.695C145.884 47.6146 145.566 47.404 145.331 47.0632C145.096 46.7224 145.01 46.3626 145.073 45.9838C145.121 45.6997 145.246 45.4558 145.451 45.2522C145.655 45.0486 145.955 44.852 146.351 44.6625C147.678 43.9993 149.129 43.5325 150.706 43.2622C152.283 42.9918 153.86 43.0151 155.437 43.3318C157.178 43.6817 158.529 44.2589 159.489 45.0635C160.473 45.8728 161.111 46.8574 161.404 48.0173C161.721 49.1819 161.765 50.4507 161.536 51.8238C161.359 52.8891 160.967 53.9971 160.362 55.1478C159.761 56.2748 158.829 57.4208 157.565 58.5859C156.301 59.7509 154.634 60.9208 152.566 62.0956C150.498 63.2704 147.899 64.424 144.768 65.5564L144.31 64.3635C144.635 64.6001 144.97 64.7775 145.315 64.8958C145.66 65.0141 146.009 65.1087 146.362 65.1796C147.256 65.3592 148.29 65.5057 149.463 65.619C150.635 65.7323 151.914 65.8668 153.298 66.0227C154.706 66.1832 156.151 66.4124 157.634 66.7103C158.787 66.942 159.53 67.2992 159.863 67.782C160.2 68.2412 160.331 68.6956 160.256 69.1455C160.189 69.5479 159.982 69.8368 159.637 70.012C159.296 70.1637 158.807 70.1756 158.172 70.048C156.431 69.6981 154.884 69.424 153.531 69.2255C152.178 69.0271 150.976 68.8712 149.925 68.7579C148.873 68.6445 147.907 68.5359 147.024 68.432C146.165 68.3328 145.336 68.2029 144.536 68.0421Z" fill="white"/>
<path d="M167.014 74.5172C164.841 73.6173 163.192 72.5449 162.065 71.2998C160.961 70.064 160.32 68.6822 160.141 67.1546C159.962 65.6269 160.191 63.9959 160.829 62.2616C161.741 59.7839 163.53 57.6306 166.196 55.8016C168.884 53.9818 172.255 52.5618 176.31 51.5415C177.036 51.3748 177.56 51.2678 177.885 51.2203C178.231 51.182 178.57 51.2317 178.903 51.3694C179.147 51.4704 179.326 51.6094 179.439 51.7863C179.575 51.9724 179.662 52.1897 179.698 52.4384C179.734 52.687 179.707 52.9352 179.616 53.183C179.483 53.5433 179.282 53.8107 179.014 53.985C178.745 54.1593 178.27 54.339 177.589 54.524C175.221 55.1267 173.093 55.8416 171.204 56.6688C169.338 57.5051 167.774 58.4926 166.511 59.6311C165.258 60.7471 164.366 62.0259 163.835 63.4674C163.322 64.8639 163.182 66.0778 163.415 67.109C163.658 68.1178 164.189 68.9997 165.01 69.755C165.839 70.4877 166.875 71.1111 168.116 71.6254C169.203 72.0753 170.262 72.358 171.292 72.4733C172.331 72.5662 173.255 72.4166 174.064 72.0247C174.88 71.6102 175.475 70.8962 175.848 69.8826C176.055 69.3195 176.096 68.6876 175.971 67.9867C175.868 67.2951 175.505 66.6129 174.884 65.9404C174.285 65.277 173.342 64.679 172.056 64.1464C170.925 63.6781 169.984 63.3533 169.233 63.1721C168.504 63.0001 167.889 62.901 167.388 62.8751C166.895 62.8266 166.472 62.7943 166.12 62.7784C165.777 62.7399 165.416 62.6427 165.039 62.4866C164.685 62.3396 164.474 62.1485 164.407 61.9133C164.34 61.678 164.365 61.4027 164.481 61.0873C164.63 60.6819 165.094 60.3937 165.872 60.2229C166.659 60.0295 167.694 60.0298 168.976 60.2236C170.282 60.4267 171.777 60.8771 173.462 61.575C175.147 62.2728 176.447 63.1487 177.363 64.2027C178.301 65.2658 178.871 66.4235 179.075 67.6758C179.278 68.9282 179.148 70.185 178.684 71.4464C178.245 72.6401 177.48 73.6082 176.389 74.3504C175.321 75.1019 173.979 75.5196 172.364 75.6034C170.771 75.6965 168.988 75.3344 167.014 74.5172Z" fill="white"/>
</svg>
