<svg width="438" height="368" viewBox="0 0 438 368" fill="none" xmlns="http://www.w3.org/2000/svg">
<path d="M303.994 14.1757C292.219 -43.4685 191.289 131.072 191.289 131.072C191.289 131.072 121.981 -3.9705 73.3899 35.1571C26.4671 72.9418 149.244 175.264 149.244 175.264C149.244 175.264 -16.11 177.507 4.2342 224.912C26.0863 275.831 165.796 213.572 165.796 213.572C165.796 213.572 102.539 322.452 126.997 338.435C151.455 354.418 205.977 239.83 205.977 239.83C205.977 239.83 248.131 388.602 296.381 362.177C341.266 337.595 247.067 211.922 247.067 211.922C247.067 211.922 476.884 227.998 427.828 175.019C383.767 127.434 241.194 163.685 241.194 163.685C241.194 163.685 315.769 71.82 303.994 14.1757Z" fill="#FFB0A2" stroke="#FFB0A2" stroke-width="5"/>
</svg>
