<svg width="117" height="109" viewBox="0 0 117 109" fill="none" xmlns="http://www.w3.org/2000/svg">
<path d="M65.8685 4.90295C58.3223 -9.45026 45.4242 45.2374 45.4242 45.2374C45.4242 45.2374 16.8259 15.042 7.13888 29.436C-2.21564 43.336 37.8424 60.4392 37.8424 60.4392C37.8424 60.4392 -5.26084 74.6281 3.73511 85.5555C13.3978 97.2927 45.1416 69.2605 45.1416 69.2605C45.1416 69.2605 37.0181 103.4 44.6571 105.637C52.2961 107.875 57.6914 72.9364 57.6914 72.9364C57.6914 72.9364 80.246 109.013 90.8278 98.0232C100.671 87.7999 66.2842 62.1411 66.2842 62.1411C66.2842 62.1411 127.678 47.5221 110.736 37.4734C95.5186 28.4481 61.0113 49.803 61.0113 49.803C61.0113 49.803 73.4147 19.2561 65.8685 4.90295Z" fill="#FFCCE6" stroke="#FFCCE6" stroke-width="5"/>
</svg>
