<svg width="55" height="58" viewBox="0 0 55 58" fill="none" xmlns="http://www.w3.org/2000/svg">
<path d="M50.7027 18.004C53.8613 10.9461 29.7298 21.8117 29.7298 21.8117C29.7298 21.8117 32.6794 2.0683 24.5004 2.5071C16.6021 2.93084 21.8612 23.2944 21.8612 23.2944C21.8612 23.2944 4.05324 10.8161 2.59274 17.4403C1.02398 24.5554 20.6929 28.6561 20.6929 28.6561C20.6929 28.6561 5.60785 35.4114 6.99246 38.9983C8.37706 42.5852 22.9676 34.5488 22.9676 34.5488C22.9676 34.5488 16.0704 53.6691 23.2403 54.5598C29.9102 55.3884 29.4874 34.7306 29.4874 34.7306C29.4874 34.7306 52.7679 54.1221 51.5929 44.6947C50.5376 36.2273 32.5551 29.1307 32.5551 29.1307C32.5551 29.1307 47.5441 25.0619 50.7027 18.004Z" fill="#FFB0A2" stroke="#FFB0A2" stroke-width="5"/>
</svg>
