<svg width="64" height="53" viewBox="0 0 64 53" fill="none" xmlns="http://www.w3.org/2000/svg">
<path d="M33.0453 27.9C40.2408 2.51542 50.0616 3.00182 52.4924 5.66534C55.8957 12.2663 43.012 18.983 33.0453 27.9Z" fill="white" stroke="white" stroke-width="3"/>
<path d="M33.1669 27.8999C35.449 24.4403 40.8076 16.7248 43.9843 13.54" stroke="white"/>
<path d="M32.2659 27.9535C25.0705 53.3381 15.2497 52.8517 12.8188 50.1882C9.41554 43.5872 22.2993 36.8705 32.2659 27.9535Z" fill="white" stroke="white" stroke-width="3"/>
<path d="M32.1444 27.9536C29.8622 31.4132 24.5037 39.1287 21.3269 42.3135" stroke="white"/>
<path d="M30.3714 30.1895C61.005 34.2415 63.4859 26.1328 61.2531 23.1385C54.9121 17.8314 43.424 25.6138 30.3714 30.1895Z" fill="white" stroke="white" stroke-width="3"/>
<path d="M30.4088 30.0913C34.9848 29.594 45.2727 28.2679 49.8166 26.9425" stroke="white"/>
<path d="M33.0122 28.9156C2.37856 32.9676 -0.102369 24.8589 2.13047 21.8646C8.4715 16.5575 19.9596 24.3399 33.0122 28.9156Z" fill="white" stroke="white" stroke-width="3"/>
<path d="M32.9748 28.8174C28.3988 28.3201 18.1109 26.994 13.567 25.6685" stroke="white"/>
<path d="M31.7267 29.9538C15.9424 8.38516 22.6462 1.52986 26.3502 1.4677C33.845 3.22675 30.9638 16.9477 31.7267 29.9538Z" fill="white" stroke="white" stroke-width="3"/>
<path d="M31.8048 29.8651C30.4902 25.9756 27.7313 17.1052 27.2127 12.7394" stroke="white"/>
<path d="M30.3714 29.4109C42.0839 53.2194 51.6669 51.1155 53.5754 48.0903C55.7239 41.0266 41.8118 36.5435 30.3714 29.4109Z" fill="white" stroke="#FFFEFE" stroke-width="3"/>
<path d="M30.4911 29.391C33.3691 32.4205 40.0524 39.1322 43.7613 41.743" stroke="white"/>
<path d="M35.9255 26.4833C34.4666 24.2452 30.5839 21.5043 26.725 28.4459C27.1419 30.5463 29.0296 34.5198 33.2458 33.6108C37.4619 32.7018 36.789 28.4804 35.9255 26.4833Z" fill="#FFFAC2" stroke="#FFFAC2"/>
</svg>
