<svg width="411" height="28" viewBox="0 0 411 28" fill="none" xmlns="http://www.w3.org/2000/svg">
<path d="M1.47607 25.861C1.47607 25.861 23.8442 1.36601 42.9395 2.03472C60.9511 2.66548 63.0611 25.861 81.0858 25.861C99.1105 25.861 101.211 1.69021 119.232 2.03472C136.722 2.36908 138.229 26.0953 155.72 25.861C172.861 25.6313 173.959 2.03472 191.102 2.03472C208.245 2.03472 209.46 24.0075 226.484 25.861C246.934 28.0874 251.796 2.84532 272.37 2.03472C294.654 1.15676 300.948 26.7389 323.232 25.861C343.806 25.0504 348.558 0.963015 369.118 2.03472C387.833 3.01023 409.476 25.861 409.476 25.861" stroke="#E33D85" stroke-width="4"/>
</svg>
