<svg width="169" height="138" viewBox="0 0 169 138" fill="none" xmlns="http://www.w3.org/2000/svg">
<path d="M37.8857 86.7412C36.5593 87.9383 35.1965 88.6713 33.7972 88.9403C32.403 89.1691 31.0657 88.9561 29.7853 88.3013C28.4903 87.6242 27.3382 86.5164 26.329 84.9778C25.4807 83.6845 24.9087 82.2839 24.613 80.7759C24.337 79.2501 24.3145 77.7262 24.5454 76.2044C24.7815 74.6424 25.2508 73.1717 25.9532 71.7922C26.6755 70.3949 27.6107 69.1781 28.7589 68.1419C29.0955 67.8381 29.4415 67.5969 29.7969 67.418C30.1721 67.2214 30.5293 67.1653 30.8683 67.2498C31.2126 67.2941 31.5455 67.5615 31.8673 68.0521C32.0428 68.3196 32.1198 68.6052 32.0982 68.9086C32.0964 69.1942 31.9669 69.4531 31.7095 69.6854C31.5116 69.864 31.3214 69.9825 31.1389 70.0406C30.9762 70.0809 30.8011 70.1503 30.6135 70.2486C30.4112 70.3246 30.1418 70.5145 29.8053 70.8183C28.6769 71.8367 27.8622 73.069 27.3611 74.5152C26.8651 75.9212 26.7082 77.4117 26.8904 78.9867C27.0579 80.5395 27.6097 82.0293 28.5457 83.4564C29.2477 84.5267 30.0428 85.2824 30.9308 85.7233C31.824 86.1241 32.7461 86.2326 33.697 86.0488C34.6678 85.8472 35.5887 85.3533 36.4597 84.5671C37.3505 83.7631 37.9677 83.0464 38.3112 82.4169C38.64 81.7651 38.8256 81.2072 38.8678 80.7431C38.9299 80.2611 38.9743 79.8483 39.001 79.5047C39.0131 79.1388 39.1479 78.8397 39.4052 78.6074C39.623 78.4109 39.8425 78.3371 40.0636 78.386C40.3046 78.417 40.5055 78.5551 40.6664 78.8004C41.1051 79.4693 41.265 80.2657 41.1461 81.1895C41.047 82.0954 40.7065 83.0417 40.1245 84.0284C39.5624 84.9972 38.8161 85.9015 37.8857 86.7412Z" fill="white"/>
<path d="M46.604 81.2462C45.2196 81.6423 44.0538 81.6742 43.1067 81.3419C42.1852 81.0022 41.4227 80.4524 40.819 79.6927C40.2375 78.8992 39.7919 78.0256 39.4822 77.072C39.1947 76.0847 38.9927 75.1414 38.8761 74.2423C38.7253 73.0787 38.6701 71.8329 38.7107 70.5048C38.7734 69.1429 38.896 67.8325 39.0785 66.5736C39.2866 65.3072 39.5315 64.2224 39.8132 63.319C39.9259 62.9576 40.0728 62.655 40.2539 62.4112C40.435 62.1674 40.6358 61.9728 40.8562 61.8275C41.1023 61.6748 41.3536 61.5617 41.6099 61.4884C41.8663 61.415 42.0561 61.443 42.1792 61.5723C42.2989 61.6752 42.3742 61.8456 42.405 62.0836C42.453 62.4539 42.3993 62.9629 42.244 63.6107C42.0853 64.2321 41.8958 65.0268 41.6756 65.9949C41.4777 66.9292 41.3422 68.0376 41.2691 69.3201C41.1961 70.6026 41.2693 72.0902 41.4887 73.7827C41.7149 75.5281 42.2239 76.8908 43.0157 77.871C43.8331 78.8439 44.9597 79.1249 46.3954 78.7141C47.4209 78.4206 48.3703 77.8473 49.2434 76.994C50.1166 76.1408 50.7957 75.1236 51.2807 73.9426C51.7914 72.7543 51.9662 71.5387 51.8051 70.2957L52.3437 70.7587C51.5437 70.7408 50.6463 70.7919 49.6515 70.912C48.6567 71.0321 47.632 71.2293 46.5775 71.5037C45.5195 71.7516 44.4957 72.0583 43.5061 72.4237C42.5131 72.7627 41.644 73.1348 40.8989 73.54L40.5134 71.182C42.103 70.7271 43.4925 70.1649 44.6819 69.4954C45.868 68.7995 46.8625 68.0624 47.6657 67.284C48.4688 66.5057 49.0488 65.75 49.4058 65.0171C49.785 64.2503 49.9369 63.576 49.8615 62.9942C49.8101 62.5976 49.6262 62.3073 49.3099 62.1236C49.0193 61.9325 48.5278 61.936 47.8356 62.1341C47.1691 62.3248 46.5034 62.625 45.8386 63.0347C45.196 63.4105 44.5124 63.8804 43.7879 64.4443C43.0855 64.9744 42.2746 65.5904 41.3553 66.2923C41.0647 66.5126 40.7699 66.5969 40.4708 66.5454C40.1938 66.4601 40.0527 66.2948 40.0475 66.0494C40.0354 65.7512 40.1661 65.4258 40.4395 65.0733C40.7128 64.7208 40.9546 64.4322 41.1648 64.2075C42.4036 62.8931 43.6399 61.8674 44.8738 61.1303C46.1043 60.3668 47.3092 59.8163 48.4885 59.4789C49.3602 59.2294 50.0969 59.1695 50.6986 59.299C51.326 59.4211 51.8244 59.6762 52.1937 60.0642C52.5631 60.4522 52.7821 60.9106 52.8506 61.4395C52.9637 62.3122 52.8136 63.2054 52.4003 64.119C52.0126 65.0253 51.4369 65.9169 50.6731 66.7937C49.9059 67.644 49.0498 68.4238 48.1048 69.1331C47.1598 69.8423 46.1976 70.4193 45.2183 70.8641L45.1128 69.7424C46.3844 69.2963 47.562 68.9456 48.6456 68.6903C49.7293 68.4351 50.6839 68.3128 51.5095 68.3233C52.3317 68.3075 52.9881 68.4487 53.4788 68.7471C53.9952 69.0382 54.2962 69.5143 54.3819 70.1755C54.5224 71.2597 54.416 72.3872 54.0626 73.558C53.7057 74.7023 53.1574 75.8054 52.4176 76.8673C51.7001 77.8955 50.8338 78.8016 49.8187 79.5857C48.8292 80.3626 47.7577 80.916 46.604 81.2462Z" fill="white"/>
<path d="M61.5176 78.2949C60.3752 78.3929 59.3867 78.1984 58.5523 77.7116C57.7452 77.1958 57.1305 76.4375 56.7082 75.4366C56.2859 74.4358 56.0943 73.2423 56.1334 71.8562C56.1688 70.6033 56.3901 69.3346 56.7975 68.0498C57.2321 66.7361 57.8106 65.4899 58.533 64.3111C59.2562 63.1056 60.1217 62.0209 61.1296 61.057C62.1375 60.093 63.2464 59.3065 64.4563 58.6975C65.6662 58.0885 66.962 57.7247 68.3436 57.6062C68.8218 57.5652 69.217 57.651 69.529 57.8635C69.8418 58.0494 69.9918 58.369 69.979 58.8221C69.9708 59.1153 69.8706 59.3765 69.6786 59.6057C69.4866 59.8349 69.1773 59.9944 68.7507 60.0842C66.8317 60.4615 65.1394 61.2582 63.6738 62.4741C62.2356 63.6611 61.0961 65.0619 60.2553 66.6763C59.4412 68.2884 59.0104 69.9341 58.963 71.6135C58.9389 72.4665 58.9832 73.2471 59.0957 73.9554C59.2355 74.6348 59.5553 75.5115 60.0551 76.5855L58.2862 74.4636C58.8527 75.0532 59.3321 75.4376 59.7247 75.6167C60.1179 75.7691 60.6865 75.8134 61.4305 75.7496C63.2372 75.5946 64.8614 74.3916 66.3032 72.1406C67.7716 69.8874 68.8954 66.6931 69.6748 62.5577C69.7673 62.0977 69.9103 61.7265 70.1038 61.444C70.3239 61.1592 70.6332 60.9997 71.0317 60.9655C71.5631 60.9199 71.9947 61.1222 72.3266 61.5724C72.6584 62.0226 72.8396 62.6452 72.8702 63.4404C72.9837 65.0527 73.142 66.4884 73.345 67.7474C73.5746 69.0041 73.9392 70.1694 74.439 71.2434C74.9388 72.3174 75.623 73.4287 76.4918 74.5774C76.671 74.8013 76.7701 75.0455 76.7892 75.3097C76.8082 75.574 76.7745 75.8295 76.688 76.0763C76.6015 76.323 76.4634 76.521 76.2737 76.6702C76.1097 76.8438 75.9082 76.9409 75.6691 76.9614C75.3237 76.991 75.047 76.935 74.8389 76.7933C74.6301 76.6782 74.4232 76.4966 74.2182 76.2482C73.733 75.5985 73.2746 74.9331 72.8433 74.2521C72.4127 73.5445 72.0249 72.7268 71.6801 71.7991C71.3625 70.8425 71.1034 69.6947 70.9026 68.3557C70.7019 67.0168 70.602 65.39 70.6031 63.4753L71.6381 63.4264C71.2736 66.0104 70.7337 68.2373 70.0183 70.1068C69.3036 71.9498 68.4659 73.4576 67.5052 74.6302C66.571 75.8006 65.5786 76.6835 64.5281 77.2788C63.5042 77.8719 62.5007 78.2105 61.5176 78.2949Z" fill="white"/>
<path d="M77.6367 75.3245C77.9804 74.4026 78.3716 73.4155 78.8101 72.363C79.2754 71.3111 79.7687 70.2467 80.2902 69.1696C80.8147 68.066 81.3466 67.0157 81.8858 66.0187C82.4547 64.9959 82.9851 64.0785 83.4769 63.2664C84.031 62.3761 84.6161 61.4466 85.2324 60.4781C85.8753 59.5101 86.502 58.6879 87.1123 58.0115C87.7492 57.3357 88.2943 57.0032 88.7475 57.0139C89.2007 57.0246 89.6154 57.2603 89.9915 57.7209C90.3706 58.155 90.7482 58.8415 91.1242 59.7804C91.4174 60.5048 91.7371 61.4689 92.0835 62.6728C92.4299 63.8767 92.7644 65.1866 93.0871 66.6025C93.4127 67.9919 93.7102 69.394 93.9795 70.8086C94.2518 72.1968 94.4442 73.4635 94.5566 74.6087L91.744 74.6617C91.6198 73.3834 91.4171 71.9703 91.1359 70.4225C90.8548 68.8747 90.5291 67.3657 90.1591 65.8956C89.792 64.3989 89.416 63.1013 89.0311 62.0028C88.6758 60.8784 88.3323 60.1262 88.0006 59.7464L88.9782 59.2514C88.199 60.2427 87.3902 61.3794 86.5517 62.6615C85.7162 63.9172 84.9547 65.2278 84.2673 66.5932C83.7813 67.5914 83.3132 68.5502 82.8628 69.4696C82.442 70.363 82.0346 71.2568 81.6405 72.1509C81.2731 73.0457 80.913 73.9937 80.5604 74.9951L77.6367 75.3245ZM94.8308 82.5467C94.4576 82.5379 94.1673 82.3849 93.96 82.0877C93.7794 81.7911 93.7083 81.4706 93.7469 81.1261C93.7766 80.8611 93.8951 80.3989 94.1026 79.7395C94.3337 79.1073 94.5664 78.3422 94.8005 77.4443C95.0583 76.5736 95.2392 75.6744 95.343 74.7469L96.3779 76.9635C96.0106 76.9017 95.4301 76.8348 94.6362 76.7629C93.8453 76.6644 92.8634 76.6014 91.6904 76.5736C90.5707 76.5471 89.4362 76.5336 88.2869 76.533C87.1405 76.5059 86.006 76.4923 84.8834 76.4923C83.7874 76.493 82.7018 76.5204 81.6265 76.5747C80.5542 76.6025 79.5204 76.6445 78.5251 76.7006C77.5535 76.784 76.6337 76.8818 75.7658 76.9941L76.4813 75.9747C76.4398 76.3458 76.4175 76.7837 76.4145 77.2884C76.4381 77.7939 76.4617 78.2993 76.4853 78.8047C76.5356 79.3107 76.5667 79.7499 76.5785 80.1222C76.6139 80.5216 76.6243 80.7875 76.6094 80.92C76.5827 81.1586 76.4775 81.3819 76.2939 81.5901C76.1368 81.799 75.9117 81.9 75.6184 81.893C75.1119 81.881 74.7639 81.647 74.5744 81.1908C74.3849 80.7346 74.2561 80.2134 74.1881 79.6272C74.1259 79.2272 74.0934 78.6817 74.0906 77.9908C74.0848 77.3263 74.1011 76.8219 74.1397 76.4774C74.1812 76.1063 74.2835 75.7899 74.4464 75.528C74.636 75.2668 74.8997 75.0605 75.2374 74.909C75.6047 74.7317 76.0594 74.6096 76.6015 74.5427C77.2799 74.4525 78.1833 74.3809 79.3119 74.3278C80.4672 74.2754 81.7409 74.2391 83.1331 74.2189C84.5549 74.1728 86.0138 74.1542 87.5097 74.163C89.0085 74.1453 90.4511 74.1529 91.8374 74.1857C92.2906 74.1964 92.7571 74.2074 93.237 74.2188C93.7168 74.2301 94.1952 74.2547 94.6721 74.2926C95.152 74.3039 95.6274 74.355 96.0984 74.4459C96.7293 74.5405 97.1588 74.7632 97.3868 75.1141C97.6415 75.4655 97.7303 75.9858 97.6532 76.6748C97.6027 77.1253 97.4738 77.6803 97.2664 78.3396C97.0856 78.9996 96.8529 79.6451 96.5685 80.2761C96.3077 80.9342 96.0203 81.4722 95.7062 81.8899C95.4159 82.3347 95.1241 82.5537 94.8308 82.5467Z" fill="white"/>
<path d="M103.89 77.9847C102.588 77.8692 101.547 77.5632 100.764 77.0666C99.9863 76.5436 99.4308 75.8935 99.0978 75.1163C98.7649 74.339 98.5774 73.4946 98.5355 72.5829C98.4978 71.6449 98.5552 70.7021 98.7076 69.7542C98.8601 68.8064 99.1288 67.722 99.5138 66.5011C99.9031 65.2538 100.18 64.1168 100.345 63.09C100.536 61.9053 100.651 60.9407 100.69 60.1965C100.733 59.4259 100.782 58.8695 100.837 58.5272C100.884 58.2376 100.946 58.0162 101.025 57.8629C101.103 57.7096 101.215 57.5994 101.361 57.5322C101.506 57.465 101.699 57.442 101.938 57.4632C102.628 57.5245 103.095 57.8863 103.339 58.5488C103.587 59.185 103.643 59.9243 103.508 60.7668C103.41 61.3724 103.254 62.0929 103.039 62.9283C102.854 63.7398 102.65 64.5896 102.426 65.4777C102.234 66.3418 102.034 67.1652 101.827 67.948C101.651 68.7068 101.521 69.3495 101.436 69.8761C101.237 71.1135 101.18 72.1365 101.266 72.9452C101.351 73.7539 101.643 74.3673 102.142 74.7854C102.667 75.2058 103.434 75.4608 104.443 75.5503C105.24 75.621 106.067 75.5073 106.923 75.2094C107.779 74.9115 108.577 74.4749 109.316 73.8995C110.055 73.3242 110.676 72.6449 111.179 71.8617C111.709 71.0809 112.046 70.2429 112.19 69.3477C112.236 69.0581 111.987 68.7689 111.44 68.4801C110.921 68.1937 110.156 68.0057 109.147 67.9162C108.084 67.822 107.036 67.8091 106.001 67.8776C104.997 67.922 104.04 68.0107 103.129 68.1436C102.245 68.2788 101.428 68.42 100.677 68.567C100.54 68.5815 100.411 68.5434 100.291 68.4527C100.171 68.3619 100.082 68.2472 100.023 68.1085C99.9688 67.9434 99.9523 67.7951 99.9734 67.6634C100.02 67.3738 100.089 67.1129 100.18 66.8807C100.298 66.6508 100.498 66.495 100.781 66.4132C101.377 66.2257 102.037 66.0573 102.761 65.9079C103.512 65.7609 104.286 65.6426 105.082 65.5529C105.877 65.4633 106.667 65.4131 107.45 65.4024C108.237 65.3654 108.989 65.3787 109.706 65.4423C110.981 65.5554 111.999 65.8459 112.759 66.3139C113.523 66.7555 114.053 67.3099 114.35 67.9771C114.673 68.6467 114.772 69.3764 114.645 70.1663C114.488 71.1404 114.061 72.1173 113.365 73.097C112.695 74.0791 111.854 74.9525 110.842 75.7172C109.83 76.482 108.724 77.0782 107.523 77.5058C106.323 77.9334 105.112 78.093 103.89 77.9847Z" fill="white"/>
<path d="M123.053 80.0571C121.468 79.8401 120.192 79.2895 119.227 78.405C118.261 77.5205 117.548 76.3884 117.087 75.0087C116.657 73.6065 116.454 72.0202 116.476 70.2499C116.504 68.4534 116.719 66.5348 117.12 64.4939C117.455 62.7931 117.92 61.258 118.515 59.8885C119.141 58.4964 119.856 57.2776 120.658 56.232C121.461 55.1864 122.333 54.3385 123.275 53.6881C124.217 53.0378 125.184 52.6058 126.175 52.3922C127.056 52.1903 128.135 52.0827 129.413 52.0695C130.691 52.0563 131.897 51.9929 133.032 51.8795C134.251 51.7507 135.267 51.6211 136.079 51.4904C136.923 51.3372 137.544 51.2877 137.94 51.342C138.178 51.3745 138.379 51.4558 138.543 51.5857C138.739 51.6931 138.882 51.8605 138.973 52.0879C139.069 52.2892 139.089 52.5337 139.033 52.8215C138.961 53.1878 138.711 53.4896 138.285 53.7268C137.863 53.9378 137.318 54.0915 136.648 54.1879C135.281 54.3771 134.001 54.4706 132.807 54.4686C131.619 54.4403 130.51 54.4229 129.481 54.4164C128.477 54.4134 127.53 54.5391 126.639 54.7933C125.663 55.0629 124.726 55.6198 123.828 56.4642C122.955 57.3121 122.185 58.4023 121.516 59.7349C120.878 61.0449 120.392 62.5502 120.058 64.251C119.455 67.3123 119.209 69.8044 119.319 71.7272C119.461 73.6274 119.925 75.0613 120.712 76.0287C121.503 76.97 122.599 77.5364 123.999 77.728C124.924 77.8546 125.858 77.7271 126.801 77.3456C127.771 76.9678 128.692 76.4221 129.565 75.7086C130.438 74.9951 131.165 74.1945 131.747 73.3068C132.36 72.3965 132.759 71.4704 132.945 70.5285C133.161 69.4295 133.159 68.4754 132.938 67.6659C132.717 66.8565 132.249 66.2014 131.534 65.7004C130.85 65.1769 129.887 64.8302 128.646 64.6603C127.034 64.4398 125.351 64.6528 123.596 65.2993C121.867 65.9495 120.046 67.0706 118.132 68.6627L117.103 67.2725C118.2 65.9716 119.438 64.9185 120.817 64.1131C122.228 63.2851 123.696 62.7202 125.22 62.4182C126.75 62.0902 128.255 62.0274 129.734 62.2298C131.319 62.4467 132.61 62.9189 133.607 63.6464C134.63 64.3775 135.326 65.3192 135.696 66.4715C136.067 67.6238 136.1 68.9718 135.796 70.5156C135.528 71.8762 134.989 73.1726 134.176 74.405C133.369 75.6112 132.372 76.6838 131.183 77.6228C130 78.5356 128.699 79.2174 127.281 79.6683C125.889 80.1227 124.48 80.2523 123.053 80.0571Z" fill="white"/>
<path d="M139.904 82.6125C138.776 82.4084 137.854 81.9575 137.14 81.2598C136.457 80.5408 136.009 79.6341 135.796 78.5397C135.582 77.4453 135.63 76.2223 135.94 74.8707C136.22 73.6491 136.683 72.4606 137.331 71.3054C138.01 70.129 138.817 69.0566 139.749 68.0884C140.687 67.0941 141.74 66.2559 142.908 65.5738C144.076 64.8916 145.306 64.4104 146.6 64.1302C147.894 63.8499 149.224 63.8332 150.588 64.08C151.061 64.1654 151.427 64.3536 151.689 64.6445C151.956 64.9094 152.039 65.2628 151.938 65.7046C151.872 65.9906 151.724 66.2209 151.492 66.3956C151.261 66.5703 150.929 66.6457 150.498 66.6217C148.56 66.4879 146.761 66.8257 145.1 67.6351C143.471 68.4232 142.09 69.4999 140.957 70.865C139.851 72.235 139.11 73.7387 138.734 75.3762C138.544 76.208 138.434 76.9866 138.404 77.7122C138.406 78.4164 138.545 79.3619 138.82 80.5485L137.518 77.9986C137.953 78.7269 138.343 79.2306 138.689 79.5097C139.041 79.7628 139.584 79.9559 140.319 80.0888C142.103 80.4115 143.916 79.6566 145.757 77.824C147.624 75.9962 149.342 73.1532 150.91 69.295C151.09 68.8674 151.301 68.5402 151.544 68.3135C151.814 68.0915 152.146 68.0162 152.539 68.0874C153.064 68.1823 153.443 68.4945 153.677 69.0241C153.911 69.5537 153.965 70.2131 153.839 71.0024C153.633 72.6164 153.505 74.0686 153.455 75.3589C153.431 76.654 153.557 77.8949 153.831 79.0815C154.106 80.2681 154.552 81.54 155.17 82.897C155.3 83.1642 155.349 83.4301 155.315 83.6947C155.282 83.9594 155.199 84.2016 155.067 84.4213C154.935 84.641 154.762 84.7992 154.548 84.8959C154.355 85.0234 154.14 85.0658 153.904 85.0231C153.563 84.9614 153.305 84.8336 153.131 84.6396C152.951 84.4717 152.786 84.2388 152.635 83.9409C152.292 83.1749 151.977 82.4007 151.692 81.6182C151.413 80.8097 151.197 79.9044 151.044 78.9022C150.923 77.8787 150.897 76.6829 150.964 75.3145C151.032 73.9462 151.254 72.3215 151.631 70.4406L152.645 70.6647C151.785 73.1078 150.824 75.1537 149.763 76.8025C148.707 78.4254 147.598 79.6866 146.436 80.5861C145.299 81.4905 144.163 82.097 143.026 82.4057C141.916 82.7192 140.875 82.7882 139.904 82.6125Z" fill="white"/>
</svg>
